<svg width="227" height="23" viewBox="0 0 227 23" fill="none" xmlns="http://www.w3.org/2000/svg">
<path d="M7.232 18.288C5.984 18.288 4.856 18.048 3.848 17.568C2.856 17.072 2.064 16.36 1.472 15.432C0.896 14.488 0.608 13.36 0.608 12.048C0.608 10.736 0.928 9.616 1.568 8.688C2.208 7.744 3.048 7.032 4.088 6.552C5.144 6.056 6.28 5.808 7.496 5.808C8.44 5.808 9.296 5.96 10.064 6.264C10.832 6.552 11.464 6.936 11.96 7.416L10.328 9.6C9.864 9.28 9.416 9.048 8.984 8.904C8.568 8.744 8.136 8.664 7.688 8.664C7.016 8.664 6.416 8.8 5.888 9.072C5.36 9.344 4.952 9.736 4.664 10.248C4.376 10.76 4.232 11.36 4.232 12.048C4.232 12.736 4.368 13.336 4.64 13.848C4.928 14.36 5.32 14.752 5.816 15.024C6.328 15.296 6.912 15.432 7.568 15.432C8.192 15.432 8.76 15.32 9.272 15.096C9.8 14.872 10.28 14.608 10.712 14.304L12.128 16.536C11.424 17.128 10.632 17.568 9.752 17.856C8.888 18.144 8.048 18.288 7.232 18.288ZM20.6906 18.288C19.6506 18.288 18.6666 18.048 17.7386 17.568C16.8106 17.072 16.0586 16.36 15.4826 15.432C14.9066 14.488 14.6186 13.36 14.6186 12.048C14.6186 10.736 14.9066 9.616 15.4826 8.688C16.0586 7.744 16.8106 7.032 17.7386 6.552C18.6666 6.056 19.6506 5.808 20.6906 5.808C21.7306 5.808 22.7146 6.056 23.6426 6.552C24.5706 7.032 25.3226 7.744 25.8986 8.688C26.4746 9.616 26.7626 10.736 26.7626 12.048C26.7626 13.36 26.4746 14.488 25.8986 15.432C25.3226 16.36 24.5706 17.072 23.6426 17.568C22.7146 18.048 21.7306 18.288 20.6906 18.288ZM20.6906 15.432C21.2346 15.432 21.6826 15.296 22.0346 15.024C22.4026 14.752 22.6746 14.36 22.8506 13.848C23.0426 13.336 23.1386 12.736 23.1386 12.048C23.1386 11.36 23.0426 10.76 22.8506 10.248C22.6746 9.736 22.4026 9.344 22.0346 9.072C21.6826 8.8 21.2346 8.664 20.6906 8.664C20.1466 8.664 19.6906 8.8 19.3226 9.072C18.9706 9.344 18.6986 9.736 18.5066 10.248C18.3306 10.76 18.2426 11.36 18.2426 12.048C18.2426 12.736 18.3306 13.336 18.5066 13.848C18.6986 14.36 18.9706 14.752 19.3226 15.024C19.6906 15.296 20.1466 15.432 20.6906 15.432ZM29.7093 18V6.096H32.5893L32.8533 7.68H32.9493C33.4613 7.168 34.0453 6.728 34.7013 6.36C35.3733 5.992 36.1573 5.808 37.0533 5.808C38.3973 5.808 39.3813 6.24 40.0053 7.104C40.6293 7.968 40.9413 9.152 40.9413 10.656V18H37.4133V11.112C37.4133 10.312 37.2773 9.728 37.0053 9.36C36.7493 8.992 36.3013 8.808 35.6613 8.808C35.1813 8.808 34.7573 8.92 34.3893 9.144C34.0373 9.352 33.6533 9.656 33.2373 10.056V18H29.7093ZM49.5759 18.288C48.5199 18.288 47.4719 18.112 46.4319 17.76C45.3919 17.392 44.4959 16.96 43.7439 16.464L45.2559 14.256C45.9759 14.72 46.7359 15.072 47.5359 15.312C48.3519 15.552 49.1919 15.672 50.0559 15.672C50.7119 15.672 51.1919 15.576 51.4959 15.384C51.7999 15.176 51.9519 14.936 51.9519 14.664C51.9519 14.488 51.9039 14.344 51.8079 14.232C51.7279 14.104 51.5759 13.992 51.3519 13.896C51.1439 13.784 50.8479 13.68 50.4639 13.584C50.0959 13.488 49.6159 13.376 49.0239 13.248C47.4079 12.896 46.2479 12.416 45.5439 11.808C44.8399 11.2 44.4879 10.44 44.4879 9.528C44.4879 8.408 44.9759 7.512 45.9519 6.84C46.9279 6.152 48.2639 5.808 49.9599 5.808C51.0319 5.808 51.9999 5.984 52.8639 6.336C53.7439 6.672 54.4959 7.04 55.1199 7.44L53.5359 9.552C52.9439 9.184 52.3119 8.904 51.6399 8.712C50.9679 8.52 50.3039 8.424 49.6479 8.424C49.2799 8.424 48.9759 8.464 48.7359 8.544C48.4959 8.608 48.3119 8.72 48.1839 8.88C48.0559 9.024 47.9919 9.184 47.9919 9.36C47.9919 9.68 48.1999 9.92 48.6159 10.08C49.0319 10.224 49.7439 10.408 50.7519 10.632C51.9679 10.904 52.9199 11.216 53.6079 11.568C54.2959 11.92 54.7679 12.328 55.0239 12.792C55.2959 13.24 55.4319 13.792 55.4319 14.448C55.4319 15.168 55.2079 15.816 54.7599 16.392C54.3279 16.968 53.6719 17.432 52.7919 17.784C51.9279 18.12 50.8559 18.288 49.5759 18.288ZM64.1625 18.288C63.1225 18.288 62.1385 18.048 61.2105 17.568C60.2825 17.072 59.5305 16.36 58.9545 15.432C58.3785 14.488 58.0905 13.36 58.0905 12.048C58.0905 10.736 58.3785 9.616 58.9545 8.688C59.5305 7.744 60.2825 7.032 61.2105 6.552C62.1385 6.056 63.1225 5.808 64.1625 5.808C65.2025 5.808 66.1865 6.056 67.1145 6.552C68.0425 7.032 68.7945 7.744 69.3705 8.688C69.9465 9.616 70.2345 10.736 70.2345 12.048C70.2345 13.36 69.9465 14.488 69.3705 15.432C68.7945 16.36 68.0425 17.072 67.1145 17.568C66.1865 18.048 65.2025 18.288 64.1625 18.288ZM64.1625 15.432C64.7065 15.432 65.1545 15.296 65.5065 15.024C65.8745 14.752 66.1465 14.36 66.3225 13.848C66.5145 13.336 66.6105 12.736 66.6105 12.048C66.6105 11.36 66.5145 10.76 66.3225 10.248C66.1465 9.736 65.8745 9.344 65.5065 9.072C65.1545 8.8 64.7065 8.664 64.1625 8.664C63.6185 8.664 63.1625 8.8 62.7945 9.072C62.4425 9.344 62.1705 9.736 61.9785 10.248C61.8025 10.76 61.7145 11.36 61.7145 12.048C61.7145 12.736 61.8025 13.336 61.9785 13.848C62.1705 14.36 62.4425 14.752 62.7945 15.024C63.1625 15.296 63.6185 15.432 64.1625 15.432ZM80.9331 18.288C79.4451 18.288 78.3171 17.84 77.5491 16.944C76.7811 16.048 76.3971 14.848 76.3971 13.344V3.96H72.6771V1.2H79.9251V13.488C79.9251 14.224 80.1251 14.736 80.5251 15.024C80.9251 15.296 81.3651 15.432 81.8451 15.432C82.1331 15.432 82.4211 15.4 82.7091 15.336C83.0131 15.272 83.3491 15.176 83.7171 15.048L84.4851 17.64C83.8771 17.832 83.3171 17.984 82.8051 18.096C82.3091 18.224 81.6851 18.288 80.9331 18.288ZM93.8637 18.288C92.6317 18.288 91.5117 18.048 90.5037 17.568C89.5117 17.072 88.7197 16.36 88.1277 15.432C87.5517 14.488 87.2637 13.36 87.2637 12.048C87.2637 10.752 87.5597 9.64 88.1517 8.712C88.7437 7.768 89.5117 7.048 90.4557 6.552C91.3997 6.056 92.3997 5.808 93.4557 5.808C94.6877 5.808 95.7197 6.064 96.5517 6.576C97.3837 7.072 98.0077 7.752 98.4237 8.616C98.8557 9.464 99.0717 10.432 99.0717 11.52C99.0717 11.84 99.0477 12.152 98.9997 12.456C98.9677 12.744 98.9357 12.96 98.9037 13.104H89.8797V10.728H96.5277L95.9757 11.4C95.9757 10.44 95.7677 9.72 95.3517 9.24C94.9517 8.744 94.3597 8.496 93.5757 8.496C92.9997 8.496 92.4957 8.624 92.0637 8.88C91.6317 9.136 91.2957 9.528 91.0557 10.056C90.8157 10.584 90.6957 11.248 90.6957 12.048C90.6957 12.864 90.8397 13.536 91.1277 14.064C91.4157 14.576 91.8317 14.96 92.3757 15.216C92.9197 15.472 93.5757 15.6 94.3437 15.6C94.8877 15.6 95.3997 15.528 95.8797 15.384C96.3757 15.24 96.8877 15.032 97.4157 14.76L98.5917 16.896C97.9037 17.328 97.1437 17.672 96.3117 17.928C95.4797 18.168 94.6637 18.288 93.8637 18.288Z" fill="#FF9800"/>
<path d="M107.634 18.288C106.818 18.288 106.146 18.016 105.618 17.472C105.106 16.928 104.85 16.264 104.85 15.48C104.85 14.696 105.106 14.032 105.618 13.488C106.146 12.928 106.818 12.648 107.634 12.648C108.466 12.648 109.138 12.928 109.65 13.488C110.162 14.032 110.418 14.696 110.418 15.48C110.418 16.264 110.162 16.928 109.65 17.472C109.138 18.016 108.466 18.288 107.634 18.288ZM122.845 18.288C121.613 18.288 120.493 18.048 119.485 17.568C118.493 17.072 117.701 16.36 117.109 15.432C116.533 14.488 116.245 13.36 116.245 12.048C116.245 10.752 116.541 9.64 117.133 8.712C117.725 7.768 118.493 7.048 119.437 6.552C120.381 6.056 121.381 5.808 122.437 5.808C123.669 5.808 124.701 6.064 125.533 6.576C126.365 7.072 126.989 7.752 127.405 8.616C127.837 9.464 128.053 10.432 128.053 11.52C128.053 11.84 128.029 12.152 127.981 12.456C127.949 12.744 127.917 12.96 127.885 13.104H118.861V10.728H125.509L124.957 11.4C124.957 10.44 124.749 9.72 124.333 9.24C123.933 8.744 123.341 8.496 122.557 8.496C121.981 8.496 121.477 8.624 121.045 8.88C120.613 9.136 120.277 9.528 120.037 10.056C119.797 10.584 119.677 11.248 119.677 12.048C119.677 12.864 119.821 13.536 120.109 14.064C120.397 14.576 120.813 14.96 121.357 15.216C121.901 15.472 122.557 15.6 123.325 15.6C123.869 15.6 124.381 15.528 124.861 15.384C125.357 15.24 125.869 15.032 126.397 14.76L127.573 16.896C126.885 17.328 126.125 17.672 125.293 17.928C124.461 18.168 123.645 18.288 122.845 18.288ZM132.2 18V6.096H135.08L135.368 8.688H135.44C136.032 7.712 136.744 6.992 137.576 6.528C138.424 6.048 139.32 5.808 140.264 5.808C140.792 5.808 141.216 5.848 141.536 5.928C141.872 6.008 142.216 6.128 142.568 6.288L141.848 9.24C141.48 9.128 141.144 9.048 140.84 9C140.552 8.936 140.184 8.904 139.736 8.904C139 8.904 138.272 9.12 137.552 9.552C136.848 9.984 136.24 10.736 135.728 11.808V18H132.2ZM146.69 18V6.096H149.57L149.858 8.688H149.93C150.522 7.712 151.234 6.992 152.066 6.528C152.914 6.048 153.81 5.808 154.754 5.808C155.282 5.808 155.706 5.848 156.026 5.928C156.362 6.008 156.706 6.128 157.058 6.288L156.338 9.24C155.97 9.128 155.634 9.048 155.33 9C155.042 8.936 154.674 8.904 154.226 8.904C153.49 8.904 152.762 9.12 152.042 9.552C151.338 9.984 150.73 10.736 150.218 11.808V18H146.69ZM165.597 18.288C164.557 18.288 163.573 18.048 162.645 17.568C161.717 17.072 160.965 16.36 160.389 15.432C159.813 14.488 159.525 13.36 159.525 12.048C159.525 10.736 159.813 9.616 160.389 8.688C160.965 7.744 161.717 7.032 162.645 6.552C163.573 6.056 164.557 5.808 165.597 5.808C166.637 5.808 167.621 6.056 168.549 6.552C169.477 7.032 170.229 7.744 170.805 8.688C171.381 9.616 171.669 10.736 171.669 12.048C171.669 13.36 171.381 14.488 170.805 15.432C170.229 16.36 169.477 17.072 168.549 17.568C167.621 18.048 166.637 18.288 165.597 18.288ZM165.597 15.432C166.141 15.432 166.589 15.296 166.941 15.024C167.309 14.752 167.581 14.36 167.757 13.848C167.949 13.336 168.045 12.736 168.045 12.048C168.045 11.36 167.949 10.76 167.757 10.248C167.581 9.736 167.309 9.344 166.941 9.072C166.589 8.8 166.141 8.664 165.597 8.664C165.053 8.664 164.597 8.8 164.229 9.072C163.877 9.344 163.605 9.736 163.413 10.248C163.237 10.76 163.149 11.36 163.149 12.048C163.149 12.736 163.237 13.336 163.413 13.848C163.605 14.36 163.877 14.752 164.229 15.024C164.597 15.296 165.053 15.432 165.597 15.432ZM175.671 18V6.096H178.551L178.839 8.688H178.911C179.503 7.712 180.215 6.992 181.047 6.528C181.895 6.048 182.791 5.808 183.735 5.808C184.263 5.808 184.687 5.848 185.007 5.928C185.343 6.008 185.687 6.128 186.039 6.288L185.319 9.24C184.951 9.128 184.615 9.048 184.311 9C184.023 8.936 183.655 8.904 183.207 8.904C182.471 8.904 181.743 9.12 181.023 9.552C180.319 9.984 179.711 10.736 179.199 11.808V18H175.671ZM196.786 22.296C195.234 20.904 194.002 19.296 193.09 17.472C192.178 15.632 191.722 13.584 191.722 11.328C191.722 9.072 192.178 7.024 193.09 5.184C194.002 3.344 195.234 1.736 196.786 0.36L198.754 1.92C197.314 3.312 196.274 4.752 195.634 6.24C194.994 7.728 194.674 9.424 194.674 11.328C194.674 13.216 194.994 14.912 195.634 16.416C196.274 17.904 197.314 19.344 198.754 20.736L196.786 22.296ZM207.917 11.88L207.437 5.112L207.317 1.92H210.821L210.701 5.112L210.221 11.88H207.917ZM209.069 18.288C208.381 18.288 207.805 18.064 207.341 17.616C206.893 17.152 206.669 16.56 206.669 15.84C206.669 15.136 206.893 14.56 207.341 14.112C207.805 13.664 208.381 13.44 209.069 13.44C209.757 13.44 210.325 13.664 210.773 14.112C211.237 14.56 211.469 15.136 211.469 15.84C211.469 16.56 211.237 17.152 210.773 17.616C210.325 18.064 209.757 18.288 209.069 18.288ZM221.351 22.296L219.383 20.736C220.823 19.344 221.863 17.904 222.503 16.416C223.143 14.912 223.463 13.216 223.463 11.328C223.463 9.424 223.143 7.728 222.503 6.24C221.863 4.752 220.823 3.312 219.383 1.92L221.351 0.36C222.903 1.736 224.135 3.344 225.047 5.184C225.959 7.024 226.415 9.072 226.415 11.328C226.415 13.584 225.959 15.632 225.047 17.472C224.135 19.296 222.903 20.904 221.351 22.296Z" fill="#FF0000"/>
</svg>
